#!OML:ASF X:\für Bonn\!DataBase\2005_08_10_Bjorn_Final\c3d\bjorn.ASF
:FULLY-SPECIFIED
:DEGREES
419
root 0.982991 18.8616 10.9298 -181.248 -3.88165 179.011
lowerback 0.580284 1.88808 -0.134851
upperback 11.7134 1.32905 -1.52796
thorax 12.2953 0.161588 -1.5738
lowerneck 1.52154 -0.158092 3.63238
upperneck 24.5699 -2.29249 -3.66711
head 7.18757 -1.97391 -2.06264
rclavicle 1.60022e-014 -7.55382e-015
rhumerus -376.307 -4.9005 272.754
rradius 55.0198
rwrist -2.44874
rhand -20.9352 18.8364
rfingers 7.12502
rthumb 5.43689 -11.0738
lclavicle 1.60022e-014 -7.55382e-015
lhumerus 0.0415914 -32.1844 71.1552
lradius 55.7201
lwrist -27.2489
lhand -39.1192 -15.4961
lfingers 7.12502
lthumb -12.1186 14.1329
rfemur -23.8135 -8.51128 12.2449
rtibia 35.911
rfoot -12.5039 11.1061
rtoes -0.0130772
lfemur -2.60621 4.39532 -18.2
ltibia 29.1797
lfoot -20.4531 -6.1683
ltoes -7.30621
420
root 0.953782 18.8699 10.9908 -181.229 -4.04539 178.992
lowerback 0.622638 1.92233 -0.280854
upperback 11.7387 1.38294 -1.60486
thorax 12.2978 0.1742 -1.57205
lowerneck 1.43964 -0.226894 3.66058
upperneck 24.5253 -2.40618 -3.49099
head 7.18595 -2.00418 -2.01497
rclavicle 5.96354e-016 5.56597e-015
rhumerus -376.463 -4.26899 272.822
rradius 55.1154
rwrist -1.70915
rhand -21.3696 19.1378
rfingers 7.12502
rthumb 5.01748 -10.7828
lclavicle 5.96354e-016 5.56597e-015
lhumerus 0.536555 -32.6868 71.1367
lradius 55.6874
lwrist -27.0211
lhand -39.1145 -15.6326
lfingers 7.12502
lthumb -12.1141 13.9967
rfemur -23.857 -8.76881 12.145
rtibia 35.7225
rfoot -12.9232 11.4589
rtoes -1.26446
lfemur -2.86611 4.48698 -18.2952
ltibia 29.2473
lfoot -20.3404 -6.5327
ltoes -7.19086
421
root 0.926068 18.8781 11.0504 -181.204 -4.19022 178.942
lowerback 0.656517 1.96001 -0.481048
upperback 11.7646 1.44451 -1.689
thorax 12.3048 0.184942 -1.54734
lowerneck 1.3046 -0.28802 3.67028
upperneck 24.5288 -2.51991 -3.28802
head 7.21044 -2.03507 -1.95769
rclavicle -2.32578e-014 2.06736e-014
rhumerus -376.589 -3.69074 272.855
rradius 55.0931
rwrist -0.927028
rhand -21.8203 19.3311
rfingers 7.12502
rthumb 4.58231 -10.5994
lclavicle -2.32578e-014 2.06736e-014
lhumerus 0.986838 -33.1719 71.1613
lradius 55.6363
lwrist -26.3918
lhand -38.8914 -15.6683
lfingers 7.12502
lthumb -11.8989 13.9735
rfemur -23.9063 -8.99826 12.0136
rtibia 35.545
rfoot -13.3967 11.7933
rtoes -2.4311
lfemur -3.1247 4.64115 -18.4094
ltibia 29.3117
lfoot -20.2001 -6.95808
ltoes -7.01396
422
root 0.899441 18.8854 11.1074 -181.207 -4.31744 178.861
lowerback 0.716231 2.01268 -0.717203
upperback 11.7867 1.52745 -1.77937
thorax 12.2906 0.202164 -1.50757
lowerneck 1.25593 -0.36212 3.6847
upperneck 24.4517 -2.64568 -3.07212
head 7.19324 -2.06886 -1.89414
rclavicle -1.39149e-014 3.89618e-014
rhumerus -376.763 -3.17564 272.893
rradius 55.0289
rwrist -0.117125
rhand -22.2022 19.4141
rfingers 7.12502
rthumb 4.21348 -10.5239
lclavicle -1.39149e-014 3.89618e-014
lhumerus 1.35786 -33.7421 71.2581
lradius 55.5384
lwrist -25.2667
lhand -38.6106 -15.7976
lfingers 7.12502
lthumb -11.6282 13.8597
rfemur -23.9177 -9.18502 11.8473
rtibia 35.3795
rfoot -13.9083 12.0804
rtoes -3.7167
lfemur -3.34042 4.82532 -18.5591
ltibia 29.3747
lfoot -20.0971 -7.29522
ltoes -7.23355
423
root 0.873803 18.8932 11.1629 -181.199 -4.44526 178.796
lowerback 0.767568 2.05808 -0.931953
upperback 11.7974 1.6026 -1.89
thorax 12.2694 0.219951 -1.50224
lowerneck 1.23288 -0.441846 3.75057
upperneck 24.3478 -2.77851 -2.86207
head 7.16222 -2.102 -1.84065
rclavicle -8.74653e-015 2.0276e-014
rhumerus -376.935 -2.74161 272.856
rradius 54.8862
rwrist 0.769413
rhand -22.4886 19.3063
rfingers 7.12502
rthumb 3.93697 -10.637
lclavicle -8.74653e-015 2.0276e-014
lhumerus 1.67814 -34.3225 71.3506
lradius 55.3961
lwrist -23.799
lhand -38.2635 -15.9948
lfingers 7.12502
lthumb -11.2934 13.6811
rfemur -23.9374 -9.35904 11.7016
rtibia 35.2269
rfoot -14.4046 12.3587
rtoes -4.59817
lfemur -3.56984 5.03142 -18.682
ltibia 29.4374
lfoot -19.9398 -7.66428
ltoes -7.23481
424
root 0.849855 18.8998 11.2161 -181.209 -4.57192 178.705
lowerback 0.84141 2.10816 -1.17785
upperback 11.8063 1.68439 -2.0168
thorax 12.2319 0.237979 -1.49697
lowerneck 1.18081 -0.530516 3.84261
upperneck 24.2662 -2.92677 -2.65907
head 7.14299 -2.14146 -1.79595
rclavicle 1.13307e-014 5.96354e-015
rhumerus -377.107 -2.35999 272.793
rradius 54.6434
rwrist 1.51512
rhand -22.6533 19.2536
rfingers 7.12502
rthumb 3.77789 -10.6926
lclavicle 1.13307e-014 5.96354e-015
lhumerus 1.91721 -34.8968 71.4904
lradius 55.2652
lwrist -22.1316
lhand -37.8813 -16.1248
lfingers 7.12502
lthumb -10.9248 13.571
rfemur -23.928 -9.44426 11.5257
rtibia 35.0862
rfoot -14.9578 12.5268
rtoes -5.63749
lfemur -3.77371 5.26291 -18.8305
ltibia 29.502
lfoot -19.8092 -8.01378
ltoes -7.2923
